<svg width="26.3" height="9.458" viewBox="0 0 6.959 2.502" xmlns="http://www.w3.org/2000/svg">
   <g fill="none" stroke="#F14343" stroke-width=".265" transform="translate(-25.236597,-59.740674)">

      <g id="g3879">
         <path id="path1523"
            d="m 25.377293,60.313077 c 0.01517,0.01127 0.03533,0.02484 0.05343,0.0299 0.04327,0.01209 0.07215,0.0088 0.119488,0.005 0.03142,-0.0026 0.06263,-0.0072 0.09395,-0.01079 0.189157,-0.02477 0.373289,-0.07647 0.554972,-0.133199 0.04393,-0.01344 0.07897,-0.02439 0.122578,-0.03701 0.01492,-0.0043 0.02967,-0.0093 0.04485,-0.01257 0.02492,-0.0053 0.04881,-0.0092 0.07304,0.0024 0.01243,0.0059 0.02207,0.0164 0.0331,0.02463 0.02442,0.0449 0.05573,0.09254 0.05781,0.146122 0.0072,0.187745 -0.04958,0.292528 -0.148113,0.466857 -0.142846,0.252717 -0.311015,0.454491 -0.487206,0.683638 -0.312036,0.370962 -0.159906,0.196639 -0.45474,0.524404 0,0 7.7e-5,4.8e-5 7.7e-5,4.8e-5 v 0 c 0.294754,-0.327821 0.142647,-0.153482 0.45468,-0.524441 0.176726,-0.229841 0.343823,-0.43025 0.48725,-0.683615 0.09865,-0.17427 0.155773,-0.278804 0.148719,-0.466574 -0.0021,-0.05345 -0.03335,-0.101274 -0.05766,-0.146116 -0.01154,-0.0085 -0.02169,-0.01934 -0.03463,-0.02548 -0.02414,-0.01148 -0.04823,-0.0075 -0.07303,-0.0021 -0.01518,0.0032 -0.02992,0.0083 -0.04482,0.01259 -0.04331,0.01257 -0.07894,0.02368 -0.122529,0.03705 -0.18166,0.05676 -0.365772,0.108519 -0.554927,0.133213 -0.03133,0.0036 -0.06256,0.0083 -0.09399,0.01074 -0.04889,0.0039 -0.0754,0.007 -0.11958,-0.0051 -0.01772,-0.0048 -0.03705,-0.01796 -0.05179,-0.02896 0,0 -9.26e-4,-2.64e-4 -9.26e-4,-2.64e-4 z" />
         <path id="path1525"
            d="m 26.136244,61.206707 c 0.01248,0.0067 0.02565,0.01217 0.03746,0.01998 0.04139,0.0273 0.10817,0.08143 0.142868,0.11211 0.05598,0.04949 0.135067,0.126267 0.183552,0.181811 0.03212,0.03679 0.06106,0.07625 0.09159,0.114374 0.07461,0.09696 0.143077,0.198562 0.20391,0.30471 0.01355,0.02365 0.02595,0.04794 0.03894,0.07191 0,0 7.93e-4,2.64e-4 7.93e-4,2.64e-4 v 0 c -0.01299,-0.02397 -0.02543,-0.04828 -0.039,-0.07194 -0.06089,-0.106156 -0.129394,-0.20778 -0.204022,-0.304765 -0.03052,-0.03812 -0.05945,-0.07758 -0.09156,-0.114369 -0.04842,-0.05548 -0.127559,-0.132334 -0.18346,-0.181779 -0.0366,-0.03238 -0.101214,-0.0846 -0.144204,-0.112925 -0.01184,-0.0078 -0.02501,-0.01333 -0.03752,-0.02 0,0 7.41e-4,5.29e-4 7.41e-4,5.29e-4 z" />
      </g>
      <g id="g3875">
         <path id="path1527"
            d="m 26.743096,60.890967 c 0.01273,0.02209 0.02553,0.04405 0.0408,0.06455 0.01289,0.0173 0.02373,0.03163 0.04269,0.04298 0.01103,0.0066 0.02344,0.0105 0.03517,0.01577 0.02516,-1.33e-4 0.05046,0.0019 0.07552,-2.65e-4 0.07057,-0.0066 0.156872,-0.02688 0.22401,-0.04585 0.07031,-0.01987 0.173635,-0.0557 0.241908,-0.0824 0.0377,-0.01474 0.07467,-0.03131 0.112001,-0.04697 0.206219,-0.09287 0.391335,-0.224407 0.573321,-0.357101 0.0199,-0.01437 0.06306,-0.05524 0.09637,-0.04825 0.03679,0.0077 0.06428,0.06293 0.07599,0.08915 0.03408,0.0763 0.03016,0.0995 0.04177,0.18601 1.4e-4,0.03835 0.0034,0.07682 5.29e-4,0.115059 -0.0062,0.0806 -0.02556,0.156771 -0.04918,0.233664 -0.01915,0.06237 -0.0397,0.122055 -0.07612,0.176827 -0.01648,0.02479 -0.03793,0.04593 -0.0569,0.06889 -0.05357,0.0496 -0.05886,0.05803 -0.115975,0.09838 -0.01558,0.01101 -0.03216,0.02059 -0.04824,0.03087 0,0 7.94e-4,5.29e-4 7.94e-4,5.29e-4 v 0 c 0.01606,-0.01029 0.03263,-0.01987 0.04821,-0.0309 0.05707,-0.04037 0.06239,-0.04881 0.115935,-0.09842 0.01897,-0.02296 0.04042,-0.0441 0.0569,-0.06891 0.03642,-0.0548 0.05692,-0.114482 0.07606,-0.176876 0.02358,-0.07684 0.04293,-0.153141 0.04919,-0.233675 0.003,-0.03824 -2.59e-4,-0.07671 -2.65e-4,-0.115059 -0.01156,-0.08656 -0.0076,-0.10963 -0.04166,-0.185992 -0.01246,-0.02793 -0.03947,-0.08181 -0.07744,-0.08997 -0.03306,-0.0071 -0.07675,0.03419 -0.0963,0.04833 -0.181887,0.1328 -0.36699,0.264322 -0.573214,0.357151 -0.03733,0.01566 -0.07429,0.03223 -0.111988,0.04697 -0.06835,0.02674 -0.171513,0.06252 -0.241911,0.08239 -0.06717,0.01894 -0.153511,0.03921 -0.224113,0.04575 -0.02508,0.0024 -0.05039,2.01e-4 -0.07559,2.65e-4 -0.01122,-0.0049 -0.02312,-0.0086 -0.03363,-0.01487 -0.019,-0.01138 -0.02978,-0.02561 -0.0427,-0.04295 -0.01524,-0.02048 -0.02803,-0.04242 -0.04074,-0.06451 0,0 -7.94e-4,-5.29e-4 -7.94e-4,-5.29e-4 z" />
         <path id="path1533"
            d="m 27.424988,61.232853 c 0.09618,0.05499 0.186566,0.119216 0.277217,0.182703 0.01807,0.01294 0.03623,0.0258 0.05425,0.03885 0.04106,0.02971 0.0558,0.04046 0.09495,0.07146 0.03385,0.02681 0.06661,0.05486 0.09935,0.08299 0.0076,0.0066 0.01527,0.0131 0.02267,0.0199 0.0061,0.0056 0.01175,0.01154 0.01765,0.01725 0.01185,0.01146 0.02516,0.02257 0.03389,0.03682 0.0024,0.0037 0.0038,0.0078 0.0057,0.01169 0.0013,0.004 0.0026,0.0081 0.0038,0.01209 0,0 7.94e-4,5.29e-4 7.94e-4,5.29e-4 v 0 c -0.0013,-0.004 -0.0026,-0.0081 -0.0038,-0.01212 -0.0019,-0.0039 -0.0034,-0.008 -0.0057,-0.01172 -0.0087,-0.01426 -0.02204,-0.0254 -0.03392,-0.03685 -0.0059,-0.0057 -0.01162,-0.01167 -0.01768,-0.01725 -0.0074,-0.0068 -0.01513,-0.01328 -0.0227,-0.01992 -0.03277,-0.02813 -0.06555,-0.05619 -0.09941,-0.08301 -0.03921,-0.03105 -0.05384,-0.04171 -0.09497,-0.07148 -0.01802,-0.01304 -0.03617,-0.0259 -0.05426,-0.03885 -0.09061,-0.06345 -0.180935,-0.127656 -0.277053,-0.182642 0,0 -7.94e-4,-2.64e-4 -7.94e-4,-2.64e-4 z" />
      </g>
      <g id="g3871">
         <path id="path1537"
            d="m 28.715451,60.9885 c 0.0085,0.0021 0.01707,0.0041 0.02556,0.0063 0.04741,0.01241 0.04885,0.01445 0.101301,0.02495 0.07201,0.01445 0.144944,0.02487 0.217559,0.03565 0.07966,0.007 0.159366,0.0031 0.238379,-0.0084 0.02527,-0.0037 0.05055,-0.0075 0.07545,-0.01315 0.03769,-0.0085 0.09919,-0.02884 0.136482,-0.04068 0.09856,-0.03764 0.195183,-0.08126 0.287489,-0.132419 0.03346,-0.02101 0.0698,-0.03646 0.10482,-0.05447 0,0 -7.94e-4,-5.29e-4 -7.94e-4,-5.29e-4 v 0 c -0.03501,0.01802 -0.07133,0.03348 -0.104783,0.0545 -0.09228,0.05117 -0.188902,0.09477 -0.287438,0.132431 -0.03734,0.01185 -0.09872,0.03216 -0.136462,0.04068 -0.0249,0.0056 -0.05018,0.0095 -0.07545,0.01315 -0.07901,0.01146 -0.158713,0.01537 -0.238371,0.0084 -0.07263,-0.0108 -0.145566,-0.02122 -0.21758,-0.03568 -0.05216,-0.01048 -0.05416,-0.01262 -0.101354,-0.025 -0.0085,-0.0021 -0.01707,-0.0042 -0.02559,-0.0063 0,0 7.94e-4,5.29e-4 7.94e-4,5.29e-4 z" />
         <path id="path2279"
            d="m 29.428265,60.36067 c 0.0405,0.08773 0.07875,0.176679 0.111218,0.267743 0.0076,0.02125 0.01447,0.04275 0.0217,0.06412 0.05265,0.155294 0.07685,0.317886 0.09929,0.479711 0.01468,0.118382 0.02926,0.237598 0.01902,0.357044 -0.006,0.07045 -0.01278,0.09146 -0.02751,0.159467 -0.02402,0.08776 -0.04497,0.157044 -0.119554,0.215517 -0.04492,0.03521 -0.06547,0.03962 -0.118198,0.06191 -0.02381,0.0066 -0.04734,0.01426 -0.0714,0.01982 -0.02453,0.0057 -0.04934,0.01 -0.07421,0.01386 -0.07156,0.01111 -0.145198,0.01725 -0.217381,0.0077 -0.02209,-0.0029 -0.04369,-0.0089 -0.06553,-0.01333 -0.0663,-0.02138 -0.134432,-0.04727 -0.188648,-0.09263 -0.02588,-0.02164 -0.03227,-0.03242 -0.05249,-0.05819 0,0 -7.94e-4,-2.64e-4 -7.94e-4,-2.64e-4 v 0 c 0.0199,0.02535 0.02699,0.03703 0.05249,0.05822 0.05482,0.04555 0.123235,0.07203 0.190183,0.09349 0.02185,0.0044 0.04343,0.0104 0.06553,0.01333 0.07218,0.0095 0.14582,0.0034 0.217384,-0.0077 0.02487,-0.0039 0.0497,-0.0082 0.07422,-0.01386 0.02408,-0.0056 0.04761,-0.01323 0.07142,-0.01984 0.05274,-0.0223 0.0733,-0.0267 0.118227,-0.06193 0.07462,-0.05849 0.09554,-0.12778 0.119549,-0.215577 0.01471,-0.06801 0.02146,-0.08904 0.0275,-0.159488 0.01024,-0.119454 -0.0043,-0.238675 -0.01902,-0.357063 -0.02244,-0.161819 -0.04659,-0.324416 -0.09923,-0.479703 -0.0072,-0.02138 -0.01413,-0.04287 -0.02169,-0.06412 -0.03246,-0.09104 -0.07068,-0.179951 -0.111104,-0.267687 0,0 -7.94e-4,-5.29e-4 -7.94e-4,-5.29e-4 z" />
      </g>
      <g id="g3867">
         <path id="path2285"
            d="m 30.298779,61.000031 c 0.143324,0.02328 0.28844,0.03196 0.433257,0.03997 0.112372,0.0067 0.225269,-0.0016 0.335032,-0.02694 0.06874,-0.01593 0.09709,-0.02732 0.163449,-0.04979 0.14025,-0.0473 0.269647,-0.118972 0.397526,-0.192249 0.05015,-0.0267 0.09843,-0.05662 0.146552,-0.08674 0,0 -7.93e-4,-5.29e-4 -7.93e-4,-5.29e-4 v 0 c -0.04811,0.03014 -0.09637,0.06007 -0.146516,0.08676 -0.127871,0.07328 -0.257252,0.144954 -0.397492,0.192256 -0.06642,0.02249 -0.09464,0.03385 -0.163443,0.04978 -0.109757,0.02543 -0.222647,0.03367 -0.33501,0.02692 -0.14486,-0.008 -0.290023,-0.01669 -0.433377,-0.04007 0,0 7.93e-4,5.29e-4 7.93e-4,5.29e-4 z" />
         <path id="path2287"
            d="m 30.161288,60.239724 c 0.02249,0.03439 0.03557,0.07401 0.0516,0.111636 0.02405,0.05426 0.03931,0.111691 0.05368,0.169105 0.01757,0.07819 0.02408,0.158134 0.02781,0.237996 0.0026,0.07403 0.0024,0.148116 0.0024,0.222178 -1.22e-4,0.07608 -2.3e-4,0.152165 -2.65e-4,0.228248 0.0021,0.06556 -0.0037,0.131541 0.0021,0.196985 0.0011,0.01328 0.0033,0.02646 0.0049,0.03969 0.0044,0.01408 0.0075,0.02868 0.01336,0.0422 0.01249,0.02858 0.03628,0.06285 0.05454,0.0876 0.01548,0.02098 0.04455,0.0567 0.06244,0.0764 0.0097,0.01061 0.02,0.02058 0.03,0.03087 0.05382,0.055 0.118263,0.0971 0.181795,0.13974 0.04743,0.02951 0.09646,0.0566 0.147656,0.07904 0.03064,0.01341 0.05578,0.02289 0.087,0.0351 0.06212,0.02154 0.123466,0.04655 0.18755,0.06191 0.01122,0.0027 0.0226,0.0047 0.03388,0.0071 0.07752,0.0195 0.157266,0.02471 0.236789,0.02847 0.0427,0.0016 0.08544,0.0024 0.12817,0.0028 0.0263,2.54e-4 0.05277,7.93e-4 0.07905,-0.0011 0.01246,-7.93e-4 0.02482,-0.0026 0.03724,-0.004 0.03984,-0.0052 0.07925,-0.01379 0.11815,-0.02373 0.01204,-0.0031 0.02413,-0.006 0.03593,-0.0099 0.02641,-0.0088 0.04074,-0.01659 0.06559,-0.02846 0.05758,-0.03182 0.106915,-0.07641 0.152632,-0.123272 0.02855,-0.03561 0.0587,-0.06988 0.08729,-0.105428 0.0085,-0.01304 0.01778,-0.02742 0.01974,-0.04333 0.0019,-0.01474 -0.0016,-0.02677 -0.0044,-0.04115 0,0 -7.94e-4,-5.29e-4 -7.94e-4,-5.29e-4 v 0 c 0.0027,0.01434 0.0062,0.02643 0.0044,0.04111 -0.0019,0.0159 -0.01125,0.03027 -0.01971,0.0433 -0.02858,0.03555 -0.05872,0.06983 -0.08727,0.105434 -0.0457,0.04686 -0.09503,0.09144 -0.152603,0.123248 -0.02487,0.01188 -0.03914,0.01963 -0.06558,0.02845 -0.0118,0.0039 -0.02389,0.0069 -0.03592,0.01 -0.0389,0.0099 -0.0783,0.01855 -0.118144,0.02371 -0.01241,0.0013 -0.02479,0.0031 -0.03724,0.0039 -0.02627,0.0019 -0.05275,0.0013 -0.07904,0.0011 -0.04273,-5.29e-4 -0.08546,-0.0011 -0.128161,-0.0028 -0.07953,-0.0038 -0.159272,-0.009 -0.236797,-0.0285 -0.0113,-0.0024 -0.02265,-0.0044 -0.03387,-0.0071 -0.06407,-0.01535 -0.125418,-0.04036 -0.187523,-0.0619 -0.03124,-0.01222 -0.05635,-0.02167 -0.08701,-0.03511 -0.05064,-0.0222 -0.09918,-0.04893 -0.146084,-0.07814 -0.06354,-0.04264 -0.127982,-0.08474 -0.181811,-0.139726 -0.01,-0.01029 -0.02035,-0.02024 -0.03001,-0.03087 -0.01789,-0.01969 -0.04698,-0.05541 -0.06245,-0.07639 -0.01826,-0.02474 -0.04205,-0.05901 -0.05454,-0.08757 -0.0059,-0.01352 -0.0089,-0.02812 -0.01336,-0.04218 -0.0016,-0.01323 -0.0038,-0.0264 -0.0049,-0.03968 -0.0057,-0.06545 -10e-6,-0.131421 -0.0021,-0.19698 5.8e-5,-0.07608 1.69e-4,-0.152164 2.64e-4,-0.228248 4.5e-5,-0.07406 2.65e-4,-0.148153 -0.0024,-0.222184 -0.0037,-0.07986 -0.01024,-0.159811 -0.02779,-0.238008 -0.01434,-0.05742 -0.02961,-0.114845 -0.05366,-0.169111 -0.01603,-0.03762 -0.0291,-0.07723 -0.05155,-0.111644 0,0 -7.94e-4,-2.64e-4 -7.94e-4,-2.64e-4 z" />
         <path id="path2289"
            d="m 31.327214,59.996617 c 0.03344,0.04104 0.06582,0.08361 0.093,0.129143 0.0072,0.01214 0.01368,0.02477 0.0205,0.03717 0.02875,0.05646 0.03978,0.118695 0.05018,0.180491 0,0 7.94e-4,2.64e-4 7.94e-4,2.64e-4 v 0 c -0.0104,-0.0618 -0.02143,-0.124041 -0.05016,-0.180514 -0.0068,-0.01238 -0.01326,-0.02503 -0.0205,-0.03717 -0.02716,-0.04553 -0.05954,-0.08807 -0.09292,-0.129133 0,0 -7.94e-4,-2.65e-4 -7.94e-4,-2.65e-4 z" />
         <path id="path2297"
            d="m 31.716699,59.873774 c 0.03936,0.04935 0.07095,0.104886 0.09539,0.163046 0.0063,0.01492 0.01148,0.03027 0.0172,0.0454 0.02167,0.06202 0.03681,0.126047 0.05192,0.189894 0,0 7.94e-4,2.64e-4 7.94e-4,2.64e-4 v 0 c -0.01511,-0.06385 -0.03027,-0.127883 -0.05192,-0.189907 -0.0057,-0.01513 -0.01093,-0.03048 -0.0172,-0.0454 -0.02442,-0.05815 -0.05599,-0.113675 -0.09531,-0.163036 0,0 -7.94e-4,-2.64e-4 -7.94e-4,-2.64e-4 z" />
      </g>
   </g>

</svg>