<?xml version="1.0" encoding="UTF-8" standalone="no"?>
<!-- Created with Inkscape (http://www.inkscape.org/) -->

<svg width="91.289" height="14.58" viewBox="0 0 24.153 3.858" xmlns="http://www.w3.org/2000/svg">
   <g fill="none" stroke="#fe53bb" stroke-width=".265" transform="translate(-12.133004,-5.4167894)">
      <path id="path791"
         d="m 14.154367,6.3887989 c -0.01038,-0.032199 -0.03036,-0.059382 -0.05154,-0.085224 -0.05167,-0.055572 -0.116112,-0.096008 -0.18211,-0.1322052 -0.09655,-0.050218 -0.203447,-0.067558 -0.310649,-0.075829 -0.08414,-0.00262 -0.168602,0.00504 -0.250433,0.025162 -0.04992,0.012279 -0.06536,0.01936 -0.113315,0.036835 -0.06943,0.029309 -0.138326,0.063846 -0.195172,0.1142667 -0.03584,0.031792 -0.04353,0.045216 -0.0728,0.08279 -0.0472,0.070276 -0.07963,0.150399 -0.07866,0.2362126 1.93e-4,0.017134 0.0028,0.03416 0.0041,0.05124 0.01229,0.068372 0.0375,0.1353585 0.08262,0.1892078 0.03074,0.036687 0.04896,0.047614 0.08698,0.077452 0.129194,0.085515 0.270135,0.1517809 0.407687,0.2226289 0.09803,0.051044 0.198301,0.098477 0.291951,0.1575001 0.05661,0.035677 0.07269,0.049415 0.125731,0.089237 0.07099,0.056532 0.1395,0.1171133 0.196538,0.1880648 0.03511,0.043671 0.04083,0.055716 0.07026,0.1025311 0.03414,0.061425 0.06424,0.1272767 0.06581,0.1989169 0.0011,0.048074 -0.0057,0.065769 -0.01575,0.1129638 -0.03008,0.1035519 -0.09054,0.1928612 -0.169265,0.2658264 -0.016,0.01483 -0.03333,0.028161 -0.04999,0.042241 -0.133767,0.1010552 -0.296525,0.1424506 -0.457481,0.1771817 -0.172559,0.028271 -0.35413,0.038808 -0.522338,-0.019431 -0.03684,-0.012756 -0.07141,-0.031329 -0.107113,-0.046994 -0.03404,-0.021648 -0.07004,-0.040496 -0.102126,-0.064946 -0.105862,-0.080662 -0.194663,-0.1873065 -0.267311,-0.2979942 -0.05009,-0.076314 -0.07719,-0.1335357 -0.118324,-0.213297 0,0 -2.91e-4,-1.272e-4 -2.91e-4,-1.272e-4 v 0 c 0.04112,0.079706 0.06831,0.1370581 0.118357,0.2133163 0.07263,0.1106575 0.161424,0.2173782 0.267284,0.2979946 0.03225,0.024561 0.06843,0.043495 0.102641,0.065242 0.03571,0.015666 0.07028,0.034238 0.107122,0.046995 0.16822,0.058242 0.349797,0.047701 0.522367,0.019434 0.160971,-0.034727 0.323753,-0.076107 0.457535,-0.1771671 0.01666,-0.014081 0.03399,-0.027415 0.04999,-0.042245 0.07873,-0.072971 0.139196,-0.1622825 0.169286,-0.2658396 0.01007,-0.047185 0.01681,-0.064903 0.01577,-0.1129697 -0.0016,-0.071651 -0.03167,-0.1375081 -0.06582,-0.1989404 -0.02943,-0.046812 -0.03516,-0.058871 -0.07026,-0.1025393 C 14.038608,7.4953319 13.970097,7.4347465 13.899097,7.3782108 13.846177,7.3384778 13.829847,7.3245518 13.77336,7.2889678 13.6795,7.2298338 13.579043,7.1822457 13.48079,7.1311132 13.343459,7.0603792 13.20274,6.9942265 13.07375,6.9088552 13.03573,6.8790232 13.01751,6.8680972 12.98678,6.8314192 12.94166,6.7775772 12.91644,6.7105996 12.90415,6.6422316 c -0.0014,-0.017079 -0.0039,-0.034102 -0.0041,-0.051234 -9.79e-4,-0.085804 0.03145,-0.1659231 0.07864,-0.2361949 0.02927,-0.037577 0.03695,-0.050988 0.0728,-0.082782 0.05684,-0.050417 0.125734,-0.084955 0.19516,-0.1142598 0.04795,-0.017473 0.0634,-0.024556 0.113306,-0.036834 0.08183,-0.02013 0.166296,-0.027776 0.250431,-0.025151 0.107207,0.00828 0.214109,0.025628 0.310658,0.075857 0.06576,0.03603 0.129879,0.076429 0.181356,0.1317583 0.02118,0.025831 0.04116,0.053005 0.05152,0.085197 0,0 4.5e-4,2.074e-4 4.5e-4,2.074e-4 z" />
      <path id="path793"
         d="m 14.837873,6.7791162 c -0.01438,0.016423 -0.01854,0.035812 -0.01142,0.05621 0.01942,0.033811 0.04563,0.022249 0.0746,0.00794 0.07302,-0.047015 0.138614,-0.1045104 0.205019,-0.1602161 0.0521,-0.044092 0.105367,-0.088153 0.167749,-0.1171236 0.03846,-0.017859 0.04716,-0.018301 0.08707,-0.028737 0.05567,-0.00819 0.12139,-0.00559 0.162084,0.039658 0.0078,0.00872 0.01336,0.019278 0.02003,0.028918 0.0364,0.078757 0.03754,0.1657331 0.01974,0.2496195 -0.005,0.023347 -0.01222,0.046142 -0.01834,0.069213 -0.05997,0.1784662 -0.143154,0.3477638 -0.22708,0.5158782 -0.06766,0.1358993 -0.140714,0.2690042 -0.210432,0.4038396 -0.0369,0.067115 -0.06548,0.137808 -0.08778,0.2109314 -0.01165,0.039222 -0.0182,0.079553 -0.02082,0.1203108 -10e-4,0.020256 -8.47e-4,0.040543 -6.35e-4,0.060816 7.94e-4,0.01292 6.08e-4,0.024916 -0.0046,0.036893 -0.0048,0.00945 -0.008,0.019571 -0.01056,0.029822 7.41e-4,-0.00153 -0.0019,0.0065 -0.0011,0.00502 0.01021,-0.017666 0.0198,-0.034937 0.03074,-0.052305 0.09304,-0.1337064 0.183962,-0.2687875 0.278142,-0.4017256 0.122334,-0.1677781 0.247634,-0.3344105 0.385996,-0.4894897 0.02691,-0.030165 0.05503,-0.059236 0.08254,-0.088854 0.100781,-0.103573 0.205528,-0.2038921 0.321091,-0.2910125 0.06626,-0.049953 0.07835,-0.055625 0.146678,-0.09858 0.08036,-0.042768 0.166637,-0.095182 0.261073,-0.095252 0.01229,-9e-6 0.02447,0.00228 0.03671,0.0034 0.01104,0.00355 0.02256,0.00584 0.03311,0.010642 0.07808,0.035556 0.08814,0.1215416 0.09814,0.1965664 0.0038,0.1427075 -0.02198,0.2852105 -0.062,0.4218442 -0.0095,0.032585 -0.02092,0.064605 -0.03138,0.096907 -0.05939,0.1684819 -0.144251,0.3259704 -0.232543,0.4806767 -0.04367,0.075807 -0.09187,0.1490467 -0.150566,0.2140681 -0.01551,0.016592 -0.03141,0.033093 -0.05044,0.045686 -0.0013,2.91e-4 -0.0082,0.0055 -0.0041,8.202e-4 0.0019,-0.011033 0.0035,-0.025159 0.0051,-0.036325 0.01903,-0.1109377 0.04239,-0.2209985 0.07081,-0.3298955 0.05052,-0.1781902 0.159024,-0.329488 0.267009,-0.4769022 0.102041,-0.1348499 0.204157,-0.2701136 0.318314,-0.3951131 0.06738,-0.073782 0.08142,-0.084732 0.152097,-0.15162 0.0985,-0.085729 0.208665,-0.1615303 0.334829,-0.1997726 0.0198,-0.006 0.04018,-0.0099 0.06026,-0.014848 0.100645,-0.018976 0.200312,-0.017735 0.299792,0.00553 0.07796,0.024715 0.110022,0.059108 0.142098,0.1324298 0.0306,0.090865 0.01483,0.1871093 5.82e-4,0.2795161 -0.01697,0.09691 -0.04205,0.1921312 -0.06606,0.2874666 -0.02367,0.09122 -0.04682,0.1825686 -0.06737,0.2745449 -0.01703,0.079616 -0.03242,0.1595287 -0.04101,0.2405232 -0.0085,0.093056 0.0096,0.1847763 0.03401,0.2740636 0.03328,0.1037585 0.08563,0.2019731 0.170671,0.2726804 0.01811,0.01506 0.03848,0.027174 0.05772,0.040761 0.07485,0.039656 0.156103,0.057339 0.2405,0.059574 0.03407,8.996e-4 0.06814,-0.0022 0.102208,-0.00328 0,0 -2.65e-4,-1.921e-4 -2.65e-4,-1.921e-4 v 0 c -0.03407,0.00108 -0.06814,0.00417 -0.102223,0.00327 -0.08412,-0.00225 -0.165199,-0.019823 -0.239863,-0.059226 -0.01924,-0.013584 -0.03961,-0.025696 -0.05772,-0.040755 -0.08504,-0.070696 -0.137383,-0.1689005 -0.170658,-0.2726516 -0.02438,-0.089279 -0.04247,-0.1809887 -0.03399,-0.2740337 0.0086,-0.080996 0.02395,-0.1609132 0.04099,-0.2405295 0.02055,-0.091976 0.04371,-0.1833224 0.06737,-0.2745431 0.02401,-0.095338 0.04909,-0.1905619 0.06605,-0.2874758 0.01425,-0.092406 0.03004,-0.1886522 -5.29e-4,-0.2795223 -0.03217,-0.073572 -0.06464,-0.108069 -0.142845,-0.1328764 -0.09948,-0.023246 -0.199139,-0.024477 -0.299775,-0.00549 -0.02009,0.00495 -0.04046,0.00885 -0.06026,0.014856 -0.126156,0.038258 -0.236305,0.1140767 -0.334786,0.1998184 -0.07069,0.066915 -0.08468,0.077831 -0.15207,0.1516398 -0.114143,0.1250133 -0.21626,0.260276 -0.318321,0.3951116 -0.10801,0.147402 -0.216552,0.2986783 -0.267092,0.476871 -0.02842,0.1088906 -0.05177,0.2189464 -0.07087,0.3298639 -0.0016,0.011023 -0.0033,0.025437 -0.0051,0.036294 -0.0018,0.0052 0.0023,5.556e-4 0.0049,-2.911e-4 0.01902,-0.01261 0.03491,-0.029115 0.05041,-0.045714 0.05866,-0.065047 0.106849,-0.1383017 0.1505,-0.214118 0.08826,-0.1547244 0.173119,-0.3122198 0.232506,-0.4807056 0.01046,-0.032302 0.02184,-0.064322 0.03138,-0.096906 0.04003,-0.1366279 0.06585,-0.2791224 0.06206,-0.4218281 -0.01009,-0.075874 -0.02012,-0.1610709 -0.09885,-0.1970127 -0.01055,-0.00482 -0.02208,-0.00709 -0.03311,-0.010631 -0.01223,-0.00114 -0.02442,-0.0034 -0.0367,-0.00339 -0.09443,9.53e-5 -0.180676,0.052531 -0.261023,0.095309 -0.0683,0.042956 -0.08042,0.048649 -0.146659,0.098597 -0.115552,0.087132 -0.220286,0.187461 -0.321062,0.2910364 -0.02751,0.029619 -0.05563,0.058691 -0.08254,0.088857 -0.138356,0.1550858 -0.26366,0.3217161 -0.386009,0.489485 -0.0942,0.1329258 -0.185155,0.267993 -0.278264,0.4016562 -0.0098,0.015573 -0.01847,0.02809 -0.0265,0.04416 -0.0072,0.014343 -0.0029,0.00877 -0.0024,0.00359 0.0026,-0.010253 0.0057,-0.02037 0.01055,-0.029818 0.0052,-0.011983 0.0054,-0.023982 0.0046,-0.036912 -2.21e-4,-0.020272 -3.97e-4,-0.04056 6.35e-4,-0.060818 0.0026,-0.040757 0.0091,-0.081091 0.02079,-0.120314 0.02229,-0.073126 0.05086,-0.1438206 0.08774,-0.2109433 0.06968,-0.1348557 0.142699,-0.2679785 0.210367,-0.4038772 0.08392,-0.1681168 0.167104,-0.3374128 0.227122,-0.5158631 0.0061,-0.023069 0.01339,-0.045864 0.01835,-0.06921 0.01782,-0.083885 0.01669,-0.1708579 -0.01968,-0.2496278 -0.0067,-0.00964 -0.01215,-0.020238 -0.02002,-0.028926 -0.04111,-0.045358 -0.10671,-0.048412 -0.162849,-0.040066 -0.03991,0.010443 -0.04861,0.010888 -0.08707,0.02875 -0.06238,0.028977 -0.115646,0.073038 -0.16775,0.1171332 -0.06641,0.055704 -0.132013,0.1131969 -0.205056,0.1601803 -0.02859,0.0141 -0.05462,0.025932 -0.07377,-0.00748 -0.0071,-0.020378 -0.003,-0.039757 0.0114,-0.056159 0,0 -4.23e-4,-2.554e-4 -4.23e-4,-2.554e-4 z" />
      <path id="path795"
         d="m 20.737228,7.1442934 c -0.05025,-0.042044 -0.09926,-0.08543 -0.147536,-0.1297155 -0.08935,-0.084329 -0.183986,-0.162415 -0.285468,-0.2316207 -0.09402,-0.056497 -0.191989,-0.1127019 -0.299885,-0.137941 -0.0211,-0.00493 -0.04269,-0.00743 -0.06403,-0.011147 -0.04886,-0.00314 -0.08042,-0.00791 -0.129283,-9.13e-5 -0.077,0.012314 -0.148621,0.05064 -0.208402,0.099764 -0.0263,0.021609 -0.04926,0.046982 -0.07389,0.070472 -0.171216,0.1909196 -0.277596,0.4268465 -0.373436,0.6618708 -0.06459,0.1665507 -0.119503,0.3383923 -0.14331,0.5160198 -0.0038,0.028004 -0.0056,0.056226 -0.0085,0.084339 -0.0052,0.1164127 0.0088,0.2345804 0.0561,0.3420105 0.0068,0.015446 0.01532,0.030081 0.02298,0.045122 0.03339,0.053393 0.08261,0.090335 0.145678,0.1009309 0.04602,0.00773 0.06291,0.00164 0.109672,-0.00461 0.176449,-0.040488 0.31562,-0.1562849 0.450356,-0.270555 0.14185,-0.1312193 0.270754,-0.2774394 0.378916,-0.4377928 0.02241,-0.033216 0.04299,-0.067626 0.06448,-0.1014391 0.127071,-0.2280066 0.218184,-0.4735089 0.313532,-0.7158477 0.04522,-0.1187209 0.09274,-0.2370087 0.126684,-0.3595923 -2.34e-4,-0.00196 0.02025,-0.062061 -0.0031,-0.044565 -0.005,0.00379 -0.0091,0.00878 -0.01359,0.013171 -0.08697,0.1076719 -0.139055,0.2385391 -0.192986,0.3646601 -0.04944,0.121171 -0.09508,0.2441374 -0.131637,0.3698682 -0.02323,0.079905 -0.02896,0.108018 -0.04828,0.188654 -0.02899,0.1341467 -0.05777,0.2697771 -0.06217,0.4074634 -6.88e-4,0.021127 1.4e-4,0.042275 2.11e-4,0.063413 0.0032,0.081693 0.02165,0.1626422 0.07574,0.2262938 0.0098,0.011512 0.02119,0.021545 0.03178,0.032317 0.01294,0.00959 0.02518,0.020206 0.03883,0.028762 0.07034,0.044087 0.163329,0.068241 0.243474,0.034266 0.04215,-0.01787 0.07927,-0.045824 0.118911,-0.068735 0.04415,-0.032234 0.08831,-0.064468 0.132459,-0.096703 0,0 -1.9e-4,-1.204e-4 -1.9e-4,-1.204e-4 v 0 c -0.04417,0.032225 -0.08833,0.064451 -0.132495,0.096676 -0.03966,0.022892 -0.07681,0.050824 -0.118982,0.068675 -0.07977,0.033766 -0.172705,0.010041 -0.242787,-0.033904 -0.01365,-0.00856 -0.02589,-0.019169 -0.03883,-0.028754 -0.01059,-0.010771 -0.022,-0.020799 -0.03178,-0.03231 -0.0541,-0.063645 -0.07261,-0.1445919 -0.07578,-0.2262844 -7.4e-5,-0.021138 -8.99e-4,-0.042288 -2.23e-4,-0.063416 0.0044,-0.1376902 0.03315,-0.273327 0.06213,-0.4074782 0.01933,-0.080691 0.02502,-0.1086934 0.04827,-0.1886524 0.03656,-0.1257294 0.08219,-0.2486982 0.131636,-0.3698644 0.05394,-0.1261071 0.10604,-0.2569755 0.19309,-0.3645805 3.7e-4,-3.44e-4 0.01428,-0.016515 0.02072,-0.016629 0.0092,-1.624e-4 -0.0046,0.045354 -0.0049,0.047565 -0.03388,0.12261 -0.08136,0.2409217 -0.126556,0.3596585 -0.0953,0.2423551 -0.186425,0.487854 -0.313523,0.7158455 -0.02149,0.033812 -0.04207,0.068223 -0.06448,0.1014375 -0.108164,0.1603497 -0.237073,0.3065659 -0.378928,0.4377767 -0.134751,0.1142624 -0.273952,0.230038 -0.450415,0.2704912 -0.04676,0.00625 -0.06366,0.012322 -0.109676,0.00458 -0.06284,-0.010573 -0.111695,-0.047289 -0.144968,-0.1005038 -0.0077,-0.015042 -0.01618,-0.029675 -0.02299,-0.045123 -0.04734,-0.1074259 -0.06139,-0.2255965 -0.05615,-0.3420147 0.0028,-0.028114 0.0047,-0.056337 0.0085,-0.084343 0.02378,-0.1776338 0.07867,-0.3494847 0.143252,-0.5160436 0.09583,-0.2350275 0.20221,-0.4709517 0.373469,-0.6618366 0.02463,-0.023485 0.0476,-0.048853 0.0739,-0.070455 0.05979,-0.049111 0.131419,-0.08742 0.208423,-0.099726 0.04887,-0.00781 0.08041,-0.00304 0.129277,9.84e-5 0.02134,0.00372 0.04294,0.00622 0.06403,0.011152 0.107638,0.025186 0.205417,0.081184 0.29921,0.1375582 0.101476,0.069199 0.196111,0.1472748 0.285448,0.2316065 0.04825,0.044275 0.09725,0.087651 0.147471,0.1296889 0,0 4.5e-4,1.844e-4 4.5e-4,1.844e-4 z" />
      <path id="path834"
         d="m 22.645503,7.3295594 c 0.02536,-0.038196 0.03749,-0.083012 0.04763,-0.1271744 0.0144,-0.079329 0.0061,-0.1600811 -0.0074,-0.2388579 -0.01385,-0.072891 -0.04656,-0.1396328 -0.09651,-0.1947 -0.01096,-0.012086 -0.02333,-0.022828 -0.03499,-0.034241 -0.05662,-0.047005 -0.12425,-0.07437 -0.198109,-0.077483 -0.05223,-0.0022 -0.07452,0.00433 -0.12616,0.012914 -0.02217,0.00666 -0.04494,0.011562 -0.06651,0.019968 -0.11041,0.043028 -0.204858,0.1242801 -0.279521,0.2147621 -0.02409,0.029195 -0.04493,0.060926 -0.0674,0.091389 -0.123691,0.1940697 -0.194877,0.4154667 -0.231904,0.6415987 -0.0077,0.046911 -0.01216,0.094291 -0.01824,0.1414362 -0.01448,0.1896232 -0.01978,0.3862326 0.03393,0.5709658 0.0081,0.027948 0.01962,0.054804 0.02943,0.082207 0.01191,0.023521 0.0217,0.048244 0.03573,0.070567 0.04155,0.066117 0.10104,0.1162111 0.173762,0.1449816 0.0718,0.028406 0.106229,0.026985 0.183905,0.036178 0.03727,-0.00111 0.07479,0.00101 0.111825,-0.00335 0.212765,-0.024987 0.419806,-0.1322758 0.595445,-0.2492566 0.06315,-0.042057 0.12305,-0.088787 0.184575,-0.1331804 0.05974,-0.047417 0.119485,-0.094833 0.179227,-0.1422497 0,0 -2.6e-5,-1.67e-5 -2.6e-5,-1.67e-5 v 0 c -0.05974,0.047416 -0.119486,0.094832 -0.179229,0.1422482 -0.06154,0.044382 -0.121464,0.091103 -0.184626,0.1331476 -0.175703,0.1169588 -0.382776,0.2242005 -0.595586,0.2491491 -0.03704,0.00434 -0.07456,0.00222 -0.111841,0.00333 -0.07792,-0.00924 -0.111923,-0.00777 -0.183932,-0.036213 -0.07251,-0.028639 -0.131772,-0.078748 -0.173191,-0.1446314 -0.01403,-0.022326 -0.02383,-0.047047 -0.03575,-0.070571 -0.0098,-0.027404 -0.02132,-0.054261 -0.02945,-0.082211 -0.05374,-0.1847372 -0.04847,-0.3813617 -0.03402,-0.5710005 0.0061,-0.047145 0.01055,-0.094525 0.01823,-0.1414365 0.03702,-0.2261295 0.108228,-0.4475144 0.231954,-0.6415584 0.02247,-0.030459 0.04332,-0.062185 0.06742,-0.091375 0.07468,-0.09047 0.169151,-0.1716995 0.27957,-0.2147104 0.02157,-0.0084 0.04434,-0.013306 0.06652,-0.01996 0.05165,-0.00858 0.07393,-0.015108 0.126165,-0.012898 0.07359,0.00311 0.141021,0.030248 0.197434,0.077102 0.01166,0.011412 0.02402,0.022151 0.03499,0.034236 0.04995,0.055059 0.08264,0.1217925 0.0965,0.1946749 0.01351,0.078769 0.02184,0.159513 0.0074,0.2388343 -0.01015,0.044151 -0.02227,0.088965 -0.04767,0.1271326 0,0 4.23e-4,2.481e-4 4.23e-4,2.481e-4 z" />
      <path id="path836"
         d="m 23.581461,6.1479146 c 0.02929,0.013729 0.06057,0.023654 0.09337,0.01942 0.0102,-0.00132 0.02011,-0.00431 0.03016,-0.00647 0.103977,-0.033871 0.183845,-0.1102251 0.261934,-0.183339 0.09064,-0.086095 0.171253,-0.1817246 0.251006,-0.2777421 0.03839,-0.04556 0.07629,-0.091856 0.121542,-0.1308426 0.0084,-0.00507 0.02967,-0.027643 0.04195,-0.018143 0.002,0.00156 0.0029,0.00417 0.0044,0.00625 0.0093,0.044702 -0.002,0.093122 -0.0087,0.1374209 -0.0075,0.049501 -0.01928,0.1213249 -0.02707,0.1694272 -0.03967,0.2444163 -0.07971,0.4887534 -0.125396,0.7321249 -0.05258,0.2620226 -0.114739,0.5220398 -0.176063,0.7821273 -0.05091,0.2130243 -0.108102,0.424466 -0.157004,0.6379684 -0.02683,0.1170551 -0.048,0.2352106 -0.05449,0.3551997 -6.88e-4,0.049695 2.25e-4,0.101278 0.01937,0.1480521 0.0097,0.023746 0.01604,0.030166 0.03065,0.050645 0.0071,0.00672 0.01342,0.014359 0.02128,0.020159 0.04246,0.031326 0.101339,0.039745 0.152433,0.031249 0.0176,-0.00293 0.03453,-0.00901 0.0518,-0.013515 0.124863,-0.04523 0.222928,-0.1358302 0.322534,-0.2201455 0.03486,-0.031473 0.07393,-0.057343 0.11323,-0.082759 0,0 -3.44e-4,-2.275e-4 -3.44e-4,-2.275e-4 v 0 c -0.03928,0.025432 -0.07834,0.051312 -0.113195,0.082788 -0.09959,0.08433 -0.197657,0.1749314 -0.322536,0.2201228 -0.01727,0.0045 -0.0342,0.010578 -0.05181,0.013502 -0.05074,0.00842 -0.10949,2.646e-4 -0.151697,-0.030845 -0.0079,-0.0058 -0.01419,-0.013433 -0.02128,-0.020151 -0.01461,-0.020473 -0.02094,-0.026896 -0.03066,-0.050636 -0.01916,-0.04677 -0.02007,-0.098356 -0.01941,-0.1480521 0.0065,-0.1199965 0.02762,-0.2381623 0.05442,-0.3552312 0.04886,-0.2135201 0.106004,-0.4249825 0.156921,-0.6380123 0.06131,-0.2600912 0.123481,-0.5201057 0.176061,-0.7821295 0.04569,-0.2433634 0.08573,-0.4876897 0.125469,-0.732087 0.0076,-0.047007 0.01977,-0.1208214 0.02713,-0.1693947 0.0067,-0.044299 0.01811,-0.092692 0.0088,-0.1374066 -0.0017,-0.00225 -0.0029,-0.00503 -0.0052,-0.00674 -0.01241,-0.0094 -0.03347,0.013052 -0.04196,0.018195 -0.04524,0.039005 -0.08312,0.085315 -0.12149,0.1308828 -0.07972,0.096036 -0.160331,0.1916718 -0.250969,0.2777593 -0.0781,0.073105 -0.157995,0.1494435 -0.261988,0.1832774 -0.01006,0.00214 -0.01997,0.00515 -0.03017,0.00646 -0.03281,0.00422 -0.0641,-0.00572 -0.09339,-0.019463 0,0 3.7e-4,2.91e-4 3.7e-4,2.91e-4 z" />
      <path id="path840"
         d="m 26.721324,6.8936898 c -0.0308,-0.044987 -0.07461,-0.066119 -0.122886,-0.088417 -0.113977,-0.040098 -0.237984,-0.047812 -0.356848,-0.025823 -0.03243,0.006 -0.064,0.015994 -0.096,0.023992 -0.03279,0.011972 -0.06633,0.022029 -0.09836,0.035914 -0.145607,0.063147 -0.27678,0.1639912 -0.37848,0.2856495 -0.02975,0.035591 -0.05495,0.074756 -0.08242,0.1121339 -0.02369,0.04056 -0.04978,0.079814 -0.07108,0.1216787 -0.08516,0.167368 -0.135881,0.3525821 -0.160184,0.53825 -0.0053,0.040882 -0.0074,0.082123 -0.01117,0.1231853 2.12e-4,0.03817 -0.0016,0.076403 6.35e-4,0.1145106 0.0061,0.1064606 0.03186,0.2433314 0.09428,0.3329725 0.0123,0.017658 0.02862,0.032137 0.04293,0.048205 0.01701,0.010866 0.0324,0.024823 0.05102,0.032601 0.104784,0.043755 0.213969,-0.023461 0.290504,-0.090219 0.03215,-0.028045 0.06037,-0.0603 0.09055,-0.09045 0.0316,-0.040201 0.06499,-0.079051 0.09478,-0.1206027 0.03382,-0.047167 0.06518,-0.096083 0.09591,-0.1453253 0.09743,-0.1561626 0.18351,-0.319491 0.262034,-0.4858813 0.02293,-0.048591 0.04411,-0.097989 0.06617,-0.1469843 0.07723,-0.1797407 0.141768,-0.3649133 0.192179,-0.5539192 1.75e-4,-0.00366 0.0293,-0.103672 0.01172,-0.1029922 -0.01802,6.879e-4 -0.04767,0.04234 -0.051,0.046087 -0.01355,0.019965 -0.02847,0.039074 -0.04067,0.0599 -0.08304,0.1418169 -0.132625,0.3015504 -0.163958,0.4620352 -0.0094,0.048254 -0.01556,0.097092 -0.02334,0.1456378 -0.01575,0.1341117 -0.02433,0.2699594 -0.01178,0.4047958 0.0062,0.066384 0.01855,0.138108 0.04167,0.2012159 0.0094,0.025657 0.02343,0.049373 0.03514,0.07406 0.01682,0.017404 0.02957,0.039979 0.05045,0.052211 0.09523,0.055786 0.207196,-0.011202 0.293603,-0.047861 0,0 -2.01e-4,-1.349e-4 -2.01e-4,-1.349e-4 v 0 c -0.08583,0.036381 -0.198345,0.1036169 -0.293079,0.048131 -0.02089,-0.012234 -0.03365,-0.034805 -0.05047,-0.052208 -0.01172,-0.024688 -0.02576,-0.048407 -0.03517,-0.074067 -0.02315,-0.063114 -0.03553,-0.1348393 -0.04173,-0.2012365 -0.01258,-0.1348401 -0.004,-0.2706952 0.01174,-0.4048133 0.0078,-0.048545 0.01391,-0.097382 0.02334,-0.1456343 0.03135,-0.1604635 0.08096,-0.3202004 0.164085,-0.4619533 0.0122,-0.020817 0.02714,-0.039913 0.04071,-0.05987 0.0011,-0.00122 0.03395,-0.045532 0.05022,-0.046489 0.01762,-0.00103 -0.0114,0.098867 -0.01162,0.103002 -0.05031,0.1890443 -0.114798,0.3742502 -0.191989,0.5540195 -0.02205,0.049 -0.04322,0.098404 -0.06614,0.1470001 -0.0785,0.1664044 -0.164581,0.3297307 -0.262039,0.4858766 -0.03073,0.049237 -0.06211,0.098145 -0.09594,0.1453026 -0.02981,0.041544 -0.06322,0.080382 -0.09483,0.1205735 -0.0302,0.03014 -0.05843,0.062387 -0.0906,0.09042 -0.07607,0.0663 -0.18557,0.133981 -0.289911,0.09051 -0.01863,-0.00776 -0.03402,-0.02173 -0.05103,-0.032594 -0.01431,-0.016068 -0.03064,-0.030546 -0.04295,-0.048202 -0.06246,-0.089647 -0.08822,-0.2265143 -0.09437,-0.3329975 -0.0022,-0.038109 -4.23e-4,-0.076345 -6.62e-4,-0.1145169 0.0037,-0.041064 0.0058,-0.082309 0.01115,-0.1231932 0.02427,-0.1856721 0.075,-0.3708863 0.160167,-0.5382506 0.0213,-0.041863 0.04739,-0.081117 0.07108,-0.1216747 0.02748,-0.037374 0.05268,-0.076535 0.08243,-0.1121214 0.101716,-0.1216475 0.232901,-0.2224781 0.378517,-0.2856116 0.03202,-0.013885 0.06557,-0.023937 0.09836,-0.035905 0.032,-0.00799 0.06357,-0.017984 0.09601,-0.023979 0.11889,-0.021974 0.242921,-0.014232 0.356914,0.025897 0.04804,0.022093 0.09151,0.043236 0.122113,0.08797 0,0 5.29e-4,1.908e-4 5.29e-4,1.908e-4 z" />
      <path id="path842"
         d="m 28.664789,6.8370473 c 0.01738,-0.01815 0.03996,-0.027563 0.0636,-0.034498 0.02838,-0.00577 0.06082,-0.010671 0.0887,5.821e-4 0.0067,0.00269 0.01262,0.00687 0.01894,0.010303 0.01775,0.016497 0.02627,0.022093 0.03876,0.044748 0.04252,0.077131 0.04472,0.1712151 0.05108,0.2564784 0.01138,0.2253501 -0.02461,0.4461385 -0.067,0.6664388 -0.02877,0.1369819 -0.05938,0.2739382 -0.102729,0.4071789 -0.02183,0.067104 -0.02978,0.084503 -0.05498,0.1482209 -0.0343,0.085108 -0.08075,0.1641105 -0.137035,0.2363439 -0.02207,0.026977 -0.04748,0.050905 -0.0727,0.074871 -0.01842,0.014706 -0.02804,0.034423 -0.03719,0.055535 -0.01426,0.035334 -0.0258,0.071739 -0.03691,0.1081686 -0.0052,0.017346 -0.0093,0.035017 -0.01175,0.052958 -7.94e-4,-9.525e-4 2.65e-4,0.00391 -0.0011,0.00384 -0.0032,-1.858e-4 -0.0064,-0.028852 -0.0066,-0.030528 9.3e-5,-0.08982 0.02056,-0.1787057 0.03705,-0.2666111 0.03613,-0.1874801 0.102855,-0.3665871 0.171763,-0.5439619 0.06116,-0.1636641 0.152693,-0.3123131 0.251047,-0.4557271 0.110747,-0.1608219 0.235548,-0.3109105 0.364051,-0.4576519 0.06766,-0.075104 0.136141,-0.1500833 0.214648,-0.2141532 0.03525,-0.02877 0.05314,-0.040278 0.08979,-0.065835 0.06819,-0.046249 0.14003,-0.086755 0.214796,-0.1212845 0.04248,-0.019045 0.08644,-0.034053 0.13234,-0.041921 0.01725,-0.00277 0.03469,-0.00358 0.05212,-0.00347 0.01273,-9.79e-4 0.01725,0.00537 0.02159,0.016391 0.0092,0.042228 0.0042,0.086658 0.0024,0.1294321 -0.01072,0.1620401 -0.03823,0.3224381 -0.06365,0.4826621 -0.03544,0.2107885 -0.07013,0.4217035 -0.09563,0.6339504 -0.019,0.1635993 -0.02614,0.3281828 -0.02612,0.4927849 0.0026,0.099835 0.0063,0.2029105 0.04191,0.2975655 0.0055,0.014719 0.01296,0.028661 0.01942,0.042991 0.01479,0.022545 0.02604,0.047164 0.05238,0.059325 0.08084,0.037297 0.169023,-0.049055 0.223255,-0.093981 0.09937,-0.105356 0.05058,-0.048912 0.145426,-0.1701533 0,0 -2.2e-4,-1.315e-4 -2.2e-4,-1.315e-4 v 0 c -0.09488,0.1212202 -0.04607,0.064789 -0.145473,0.1701171 -0.05349,0.044266 -0.142595,0.1311172 -0.222597,0.094307 -0.02635,-0.012123 -0.03763,-0.036801 -0.0524,-0.059315 -0.0065,-0.01433 -0.01392,-0.028271 -0.01945,-0.042991 -0.03562,-0.094653 -0.03934,-0.1977339 -0.04195,-0.2975723 -3.9e-5,-0.1646095 0.0071,-0.329201 0.02606,-0.4928103 0.02551,-0.212249 0.06017,-0.4231672 0.09562,-0.6339536 0.02545,-0.1602065 0.05297,-0.3205837 0.06377,-0.4826034 0.0019,-0.042769 0.0069,-0.08719 -0.0024,-0.1294188 -0.0044,-0.011179 -0.0095,-0.017886 -0.02241,-0.016883 -0.01744,-1.106e-4 -0.03487,7.144e-4 -0.05211,0.00349 -0.04589,0.00788 -0.08984,0.022905 -0.132313,0.041952 -0.07476,0.034541 -0.146592,0.075051 -0.214767,0.1213117 -0.03664,0.025561 -0.05453,0.037077 -0.08977,0.06585 -0.07849,0.064085 -0.146949,0.1390801 -0.214595,0.2141903 -0.128495,0.1467537 -0.253299,0.2968392 -0.364067,0.4576479 -0.09837,0.1434097 -0.189897,0.292064 -0.251037,0.4557421 -0.06889,0.177377 -0.135623,0.3564792 -0.171804,0.5439453 -0.01651,0.087891 -0.03702,0.1767562 -0.03717,0.2665648 2.65e-4,0.00314 7.94e-4,0.029581 0.0074,0.030986 0.0013,2.646e-4 2.19e-4,-0.00516 0.0011,-0.00385 0.0024,-0.017944 0.0065,-0.035616 0.01172,-0.052964 0.01109,-0.03643 0.02265,-0.072835 0.03691,-0.1081622 0.0092,-0.021101 0.01878,-0.040809 0.03718,-0.055515 0.02521,-0.023974 0.05061,-0.047907 0.07268,-0.074895 0.05625,-0.07226 0.102684,-0.1512814 0.136958,-0.2364005 0.02519,-0.063735 0.03313,-0.081123 0.05495,-0.148242 0.04332,-0.133254 0.07392,-0.2702185 0.102688,-0.4072049 0.04234,-0.2199648 0.07842,-0.4414446 0.06706,-0.6664179 -0.0063,-0.085246 -0.0085,-0.1793174 -0.05097,-0.2564503 -0.01275,-0.023146 -0.02117,-0.028403 -0.03951,-0.045205 -0.0063,-0.00343 -0.01228,-0.00761 -0.01894,-0.010298 -0.0279,-0.01124 -0.06033,-0.00634 -0.08872,-5.557e-4 -0.02365,0.00694 -0.04622,0.016359 -0.06363,0.034507 0,0 5.29e-4,2.548e-4 5.29e-4,2.548e-4 z" />
      <path id="path844"
         d="m 32.098255,6.9313395 c -0.01606,-0.040359 -0.05233,-0.06366 -0.08729,-0.086299 -0.06146,-0.036998 -0.130741,-0.059568 -0.202573,-0.063996 -0.01995,-0.00124 -0.03999,-1.53e-4 -0.05999,-2.294e-4 -0.02291,0.0031 -0.04617,0.00439 -0.06878,0.00928 -0.118274,0.025596 -0.238051,0.088221 -0.336952,0.1562478 -0.02996,0.020606 -0.0583,0.043466 -0.08745,0.0652 -0.12554,0.1043794 -0.232815,0.2283481 -0.315254,0.3694892 -0.05502,0.094198 -0.07271,0.1429301 -0.116271,0.2429323 -0.07698,0.2008462 -0.12867,0.4113262 -0.148342,0.6256871 -0.003,0.032745 -0.004,0.065639 -0.0061,0.098459 0.0013,0.103129 -0.0024,0.226691 0.05107,0.3196728 0.0075,0.013094 0.01767,0.024495 0.02652,0.036741 0.01085,0.00949 0.02064,0.020346 0.03256,0.028456 0.05855,0.039841 0.136125,0.036641 0.202094,0.020701 0.02323,-0.00561 0.04554,-0.014539 0.06832,-0.021807 0.06687,-0.032265 0.09132,-0.040465 0.152861,-0.085682 0.09568,-0.070299 0.178363,-0.1595887 0.251343,-0.2526146 0.03015,-0.038425 0.05763,-0.078865 0.08644,-0.1182976 0.171382,-0.2425941 0.307798,-0.5068686 0.443336,-0.7704087 0.06729,-0.1328761 0.13987,-0.2630003 0.206505,-0.3962051 0.01437,-0.033526 0.03482,-0.066344 0.04182,-0.1026501 -5.3e-4,-7.938e-4 -0.0011,-0.00265 -0.0019,-0.00241 -0.0093,0.0023 -0.01974,0.018431 -0.02286,0.022992 -0.03205,0.046777 -0.0498,0.098842 -0.06904,0.1517155 -0.05381,0.1850416 -0.05492,0.3794683 -0.04171,0.5702739 0.0035,0.050045 0.009,0.099921 0.01355,0.1498817 0.01624,0.1455034 0.03939,0.2901873 0.06831,0.433696 0.01521,0.075498 0.03576,0.1686311 0.05724,0.2432333 0.01005,0.034967 0.02236,0.069258 0.03352,0.1038873 0.03974,0.0944 0.08296,0.2214478 0.172964,0.2814781 0.05355,0.035718 0.07153,0.028915 0.134353,0.034149 0,0 -2.65e-4,-2.082e-4 -2.65e-4,-2.082e-4 v 0 c -0.06222,-0.0052 -0.08081,0.00151 -0.133744,-0.033806 -0.09005,-0.06009 -0.133263,-0.1870268 -0.173043,-0.2814949 -0.01119,-0.034631 -0.02347,-0.068925 -0.03354,-0.1038945 -0.02148,-0.074623 -0.04205,-0.1677284 -0.05728,-0.2432513 -0.02894,-0.1435092 -0.05209,-0.2881961 -0.06833,-0.4337031 -0.0045,-0.049958 -0.01008,-0.099831 -0.01355,-0.149873 -0.01318,-0.1907842 -0.01204,-0.3851952 0.04184,-0.5701969 0.01926,-0.052859 0.03703,-0.1049126 0.06912,-0.1516544 7.94e-4,-0.00119 0.01455,-0.021024 0.02201,-0.023418 0.0011,-3.175e-4 0.0013,0.00156 0.0021,0.00235 -0.007,0.036314 -0.02742,0.069142 -0.04175,0.1026734 -0.06657,0.1332402 -0.139086,0.2634023 -0.206351,0.3962937 -0.135485,0.263565 -0.271878,0.5278567 -0.443301,0.7704238 -0.02882,0.039427 -0.05631,0.079863 -0.08647,0.118282 -0.073,0.093016 -0.15571,0.1822831 -0.25141,0.2525636 -0.06158,0.045225 -0.08598,0.053389 -0.152892,0.085652 -0.02278,0.00726 -0.04509,0.016182 -0.06833,0.021791 -0.06547,0.015801 -0.14324,0.019293 -0.201406,-0.020331 -0.01191,-0.00812 -0.02172,-0.018965 -0.03257,-0.028449 -0.0088,-0.012245 -0.019,-0.023643 -0.02653,-0.036737 -0.05349,-0.092982 -0.04974,-0.2165578 -0.05117,-0.3197019 0.0021,-0.032824 0.003,-0.065722 0.0061,-0.09847 0.01963,-0.2143691 0.0713,-0.4248595 0.148296,-0.6257036 0.04359,-0.1000556 0.06123,-0.1486763 0.116284,-0.2429208 0.08245,-0.1411338 0.189725,-0.2651012 0.315281,-0.3694618 0.02915,-0.02173 0.0575,-0.044589 0.08746,-0.065193 0.09892,-0.068026 0.218707,-0.1306261 0.337002,-0.1561959 0.02262,-0.00489 0.04586,-0.00618 0.06879,-0.00927 0.02,8.07e-5 0.04004,-0.00101 0.06,2.421e-4 0.07153,0.00442 0.140605,0.026826 0.201856,0.063604 0.03494,0.022625 0.07121,0.045908 0.08725,0.086252 0,0 5.3e-4,2.046e-4 5.3e-4,2.046e-4 z" />
      <path id="path848"
         d="m 36.038853,5.9284311 c 0.0094,0.031179 0.01651,0.063019 0.02371,0.094759 0.0043,0.020497 0.0024,0.010731 0.006,0.029285 0,0 5.29e-4,2.064e-4 5.29e-4,2.064e-4 v 0 c -0.0037,-0.018558 -0.0016,-0.00879 -0.006,-0.029291 -0.0072,-0.031736 -0.01434,-0.063569 -0.02368,-0.094752 0,0 -5.29e-4,-2.074e-4 -5.29e-4,-2.074e-4 z" />
      <path id="path850"
         d="m 35.899587,6.9730212 c 0.01971,0.015076 0.04398,0.024072 0.06216,0.041255 0.0062,0.00589 0.01143,0.012806 0.01714,0.019206 0.0056,0.00946 0.01196,0.018473 0.01667,0.028384 0.04476,0.094262 0.03965,0.2206222 0.03844,0.3219847 -0.0087,0.2149546 -0.04271,0.427673 -0.07651,0.6397857 -0.03283,0.2036075 -0.06578,0.4071832 -0.101825,0.610249 -0.02551,0.1443146 -0.05347,0.2882514 -0.08982,0.4302607 -0.01236,0.04204 -0.0232,0.085009 -0.04021,0.1255228 -5.29e-4,6.35e-4 -0.0013,0.00262 -0.0013,0.00188 -5.29e-4,-0.00652 0.01368,-0.034908 0.01445,-0.03674 0.01474,-0.035217 0.0149,-0.034884 0.03193,-0.073124 0.05807,-0.1262441 0.138178,-0.2404536 0.222699,-0.35012 0.0626,-0.070988 0.03158,-0.037191 0.09284,-0.1016106 0,0 -2.65e-4,-1.913e-4 -2.65e-4,-1.913e-4 v 0 c -0.06125,0.064435 -0.03022,0.030633 -0.09283,0.1016228 -0.08452,0.1096716 -0.164621,0.2238827 -0.222756,0.350099 -0.01402,0.031456 -0.02813,0.062868 -0.0409,0.094865 -0.0021,0.005 -0.0071,0.010649 -0.0047,0.015449 2.64e-4,6.879e-4 7.93e-4,-0.00124 0.0013,-0.00188 0.01696,-0.040543 0.02781,-0.083513 0.04014,-0.1255707 0.03629,-0.1420323 0.06423,-0.2859847 0.08973,-0.4303099 0.03604,-0.2030695 0.06899,-0.4066495 0.101806,-0.6102609 0.03379,-0.2121098 0.06779,-0.4248213 0.07655,-0.6397694 0.0013,-0.101338 0.0064,-0.2276967 -0.03832,-0.3219537 -0.0047,-0.00991 -0.01111,-0.018923 -0.01664,-0.028386 -0.0057,-0.0064 -0.0109,-0.013316 -0.01712,-0.019211 -0.01815,-0.017185 -0.04242,-0.026175 -0.06212,-0.041244 0,0 -5.29e-4,-1.81e-4 -5.29e-4,-1.81e-4 z" />
      <path id="path964"
         d="m 33.408072,7.2879181 c 0.04666,-0.031686 0.08342,-0.074636 0.120319,-0.1166816 0.05798,-0.065604 0.106352,-0.1386818 0.151345,-0.2135531 0.01082,-0.016989 0.01974,-0.035146 0.03045,-0.052212 0.0016,-0.00235 0.0029,-0.00477 0.0048,-0.00682 5.3e-4,-6.085e-4 0.0021,-0.00172 0.0024,-9.26e-4 9.2e-5,0.00246 -0.0013,0.00475 -0.0021,0.00713 -0.03247,0.086165 -0.06837,0.1710119 -0.09603,0.2589673 -0.01011,0.032133 -0.01884,0.064683 -0.02825,0.097024 -0.04271,0.159842 -0.0634,0.3247245 -0.06306,0.4901483 2.62e-4,0.1262108 0.0069,0.1644743 0.01902,0.290739 0.02837,0.2108954 0.073,0.4228528 0.165082,0.61614 0.01365,0.028687 0.02997,0.05604 0.04496,0.08406 0.05211,0.082009 0.112985,0.1631497 0.205446,0.2021009 0.0509,0.021442 0.06119,0.016994 0.115472,0.019251 0.02088,-0.00451 0.04239,-0.00667 0.06261,-0.013534 0.10694,-0.036314 0.198091,-0.1363572 0.258398,-0.2279094 0.02204,-0.033456 0.04003,-0.069407 0.06004,-0.1041109 0.01841,-0.040563 0.03839,-0.08045 0.05524,-0.121689 0.03576,-0.087531 0.06845,-0.1889339 0.09472,-0.2795371 0.02815,-0.097079 0.05009,-0.1866701 0.07085,-0.2855317 0.0095,-0.045359 0.01746,-0.091037 0.02619,-0.1365559 0.0354,-0.1964735 0.05521,-0.3951902 0.06941,-0.594169 0.0024,-0.04612 0.0053,-0.092363 0.0041,-0.1385821 -2.65e-4,-0.013491 -0.0011,-0.034719 -0.0052,-0.048472 -0.0013,-0.0049 -0.0044,-0.00924 -0.0066,-0.013859 -0.0034,-0.00212 -0.0063,-0.00591 -0.01032,-0.00636 -0.01209,-0.00132 -0.02416,0.010115 -0.03107,0.017373 -0.02482,0.026059 -0.03581,0.057924 -0.04794,0.090979 -0.0031,0.015089 -0.0076,0.029951 -0.0092,0.04527 -0.0089,0.086249 0.01624,0.1730465 0.05357,0.2498733 0.01151,0.02368 0.0254,0.046116 0.0381,0.069174 0.06255,0.093102 0.138618,0.1710809 0.246325,0.210193 0.02638,0.00958 0.05435,0.014026 0.08152,0.02104 0,0 -2.64e-4,-2.354e-4 -2.64e-4,-2.354e-4 v 0 c -0.02717,-0.00702 -0.05513,-0.011488 -0.08152,-0.021048 -0.107442,-0.038922 -0.183272,-0.1169985 -0.245661,-0.209789 -0.0127,-0.023056 -0.0266,-0.045491 -0.0381,-0.069169 -0.03731,-0.076814 -0.06248,-0.1636011 -0.05354,-0.2498333 0.0016,-0.015317 0.0062,-0.030174 0.0092,-0.045261 0.01212,-0.033043 0.02313,-0.064903 0.04795,-0.090945 0.0057,-0.00594 0.01934,-0.018822 0.03022,-0.017798 0.004,3.704e-4 0.0069,0.00422 0.01035,0.00633 0.0021,0.00462 0.0051,0.00895 0.0066,0.013851 0.0041,0.01375 0.0049,0.034986 0.0052,0.048474 0.0013,0.046225 -0.0016,0.092473 -0.0041,0.1385996 -0.01415,0.1989921 -0.03395,0.3977219 -0.06933,0.5942087 -0.0087,0.04552 -0.01664,0.0912 -0.02617,0.1365594 -0.02074,0.098803 -0.04271,0.1885137 -0.07084,0.2855325 -0.02627,0.090618 -0.05897,0.1919814 -0.09474,0.2795227 -0.01685,0.041235 -0.03684,0.081118 -0.05526,0.1216774 -0.02003,0.034699 -0.03802,0.070646 -0.06005,0.1040969 -0.06032,0.091542 -0.151482,0.1915612 -0.258426,0.2278565 -0.02021,0.00686 -0.04174,0.00901 -0.06261,0.01352 -0.05443,-0.00228 -0.06442,0.0022 -0.115456,-0.019264 -0.0922,-0.038751 -0.152781,-0.1200536 -0.204785,-0.2016871 -0.015,-0.028021 -0.0313,-0.055375 -0.04497,-0.084063 C 33.620257,8.4647279 33.575599,8.252766 33.54723,8.0418592 33.53517,7.9155786 33.5285,7.8773567 33.52823,7.7511311 c -2.64e-4,-0.1654154 0.02037,-0.3302905 0.0631,-0.4901192 0.0094,-0.032338 0.01815,-0.064885 0.02826,-0.097013 0.02768,-0.087947 0.06358,-0.1727851 0.09613,-0.2589213 2.65e-4,-0.00254 0.0016,-0.0051 0.0011,-0.00764 -5.29e-4,-0.00345 -0.0052,0.0048 -0.007,0.00777 -0.01069,0.017073 -0.01961,0.035231 -0.03043,0.052224 -0.04497,0.074881 -0.09334,0.1479594 -0.151328,0.2135534 -0.03691,0.042039 -0.07368,0.084981 -0.120351,0.1166468 0,0 5.29e-4,2.63e-4 5.29e-4,2.63e-4 z" />
   </g>
</svg>